# xmcd
#
# Track frame offsets:
#	187
#	8170
#	65007
#	126780
#	178955
#
# Disc length: 3132 seconds
#
# Revision: 1
# Processed by: cddbd v1.5.1PL0 Copyright (c) Steve Scherf et al.
# Submitted via: CDex 1.50Beta5
#
DISCID=420c3a05
DTITLE=TBSラジメーション - 覚悟のススメ　CDシネマ第壱巻
DYEAR=1900
DGENRE=Anime
TTITLE0=覚悟完了！
TTITLE1=第一話「新東京」
TTITLE2=第二話「現人鬼」
TTITLE3=第三話「戦術鬼」
TTITLE4=第四話「零」
EXTD=
EXTT0=
EXTT1=
EXTT2=
EXTT3=
EXTT4=
PLAYORDER=
